HIERARCHY
ROOT Hips
{
  OFFSET 0 0 0
  CHANNELS 6 Xposition Yposition Zposition Zrotation Yrotation Xrotation
  JOINT LeftThigh
  {
    OFFSET 8.409438 0 -5.917753
    CHANNELS 3 Zrotation Yrotation Xrotation
    JOINT LeftLeg
    {
      OFFSET 0 0 -42.358652
      CHANNELS 3 Zrotation Yrotation Xrotation
      JOINT LeftFoot
      {
        OFFSET 0 0 -39.357303
        CHANNELS 3 Zrotation Yrotation Xrotation
      }
    }
  }
  JOINT RightThigh
  {
    OFFSET -8.409438 0 -5.917753
    CHANNELS 3 Zrotation Yrotation Xrotation
    JOINT RightLeg
    {
      OFFSET 0 0 -42.358652
      CHANNELS 3 Zrotation Yrotation Xrotation
      JOINT RightFoot
      {
        OFFSET 0 0 -39.357303
        CHANNELS 3 Zrotation Yrotation Xrotation
      }
    }
  }
  JOINT SpineLow
  {
    OFFSET 0 0 4.719101
    CHANNELS 3 Zrotation Yrotation Xrotation
    JOINT SpineMid
    {
      OFFSET 0 0 12.899191
      CHANNELS 3 Zrotation Yrotation Xrotation
      JOINT Chest
      {
        OFFSET 0 0 12.899191
        CHANNELS 3 Zrotation Yrotation Xrotation
        JOINT LeftShoulder
        {
          OFFSET 7.550562 1.41573 9.438202
          CHANNELS 3 Zrotation Yrotation Xrotation
          JOINT LeftArm
          {
            OFFSET 9.155056 0 4.247191
            CHANNELS 3 Zrotation Yrotation Xrotation
            JOINT LeftForearm
            {
              OFFSET 0 0 25.771955
              CHANNELS 3 Zrotation Yrotation Xrotation
              JOINT LeftHand
              {
                OFFSET 0 0 25.197169
                CHANNELS 3 Zrotation Yrotation Xrotation
              }
            }
          }
        }
        JOINT RightShoulder
        {
          OFFSET -7.550562 1.41573 9.438202
          CHANNELS 3 Zrotation Yrotation Xrotation
          JOINT RightArm
          {
            OFFSET -9.155056 0 4.247191
            CHANNELS 3 Zrotation Yrotation Xrotation
            JOINT RightForearm
            {
              OFFSET 0 0 -25.771955
              CHANNELS 3 Zrotation Yrotation Xrotation
              JOINT RightHand
              {
                OFFSET 0 0 -25.197169
                CHANNELS 3 Zrotation Yrotation Xrotation
              }
            }
          }
        }
        JOINT Neck
        {
          OFFSET 0 0 15.101124
          CHANNELS 3 Zrotation Yrotation Xrotation
          JOINT Head
          {
            OFFSET 0 0 11.325843
            CHANNELS 3 Zrotation Yrotation Xrotation
            End Site
            {
              OFFSET 0 0 14.157303
            }
          }
        }
      }
    }
  }
}
MOTION
Frames: 14
Frame Time: 0.0
0.0  101.685394  0.0  1.182206  29.948469  -96.611317  4.348921  -20.823189  0.653713  -16.584862  15.578242  16.820458  -0.618231  3.278533  2.659617  -18.516949  14.381616  3.12369  -7.876649  4.596165  15.078897  -2.99855  1.233117  -2.375044  1.864636  -0.062906  2.492665  5.084139  -0.363576  6.804006  5.084139  -0.363576  6.804005  -18.268304  19.958963  5.108571  118.788263  39.568908  167.052405  -22.703438  9.595027  88.722252  59.379482  -9.912024  -36.205008  22.222956  -7.213779  5.670264  135.769093  42.257237  39.0132  -38.566433  -7.271613  -104.209121  54.920639  -0.553638  5.9326  -10.977505  -3.276671  -1.846278  -8.240875  -2.4253  -1.443805  
0.0  101.685394  0.0  1.387454  31.86276  -96.338839  3.501847  -20.481741  0.314853  -17.351772  15.698065  16.309897  -0.681852  3.221215  2.615928  -18.911319  14.548557  3.555831  -9.171537  4.686539  14.582907  -3.106476  1.218928  -2.416516  1.946145  0.038539  2.4773  5.317124  -0.09397  6.769514  5.317124  -0.09397  6.769515  -18.521131  19.601587  5.030265  117.168154  40.487428  167.229706  -22.617298  9.636196  88.214004  59.598005  -9.893145  -35.699658  22.188287  -7.335155  5.306804  134.294035  42.081853  38.003996  -38.444043  -7.188676  -104.06106  54.201567  -0.069906  5.908046  -12.304658  -3.888808  -1.764426  -9.236271  -2.882505  -1.401905  
0.0  101.685394  0.0  1.532283  33.484882  -96.173784  2.946269  -20.30455  0.171971  -17.743853  15.724809  15.997081  -0.906432  3.169799  2.521432  -19.234139  14.653882  3.983904  -10.066118  4.741073  14.186382  -3.309504  1.206728  -2.461009  2.054836  0.128121  2.459366  5.623041  0.140804  6.727744  5.623041  0.140804  6.727744  -18.748124  19.328494  5.124844  115.997785  41.497753  167.534027  -22.440327  9.700438  87.773546  59.697137  -9.947963  -35.288367  21.86837  -7.461614  4.976365  132.884365  41.978069  37.029501  -38.121873  -7.009931  -104.134762  53.56732  0.263961  5.710023  -13.570186  -4.438269  -1.583221  -10.184128  -3.295511  -1.286324  
0.0  101.685394  0.0  1.800432  35.335484  -95.819728  1.983498  -19.944102  -0.134666  -18.007161  15.740299  15.747289  -1.180381  3.116399  2.41861  -19.839057  14.875927  4.262394  -11.232383  4.829034  13.74888  -3.316746  1.175248  -2.476728  2.09379  0.231266  2.419409  5.739777  0.421669  6.627615  5.739777  0.421669  6.627614  -18.99751  19.085173  5.262513  115.069838  42.451071  167.959959  -22.380112  9.722399  87.319923  59.855332  -9.912079  -35.024338  21.697213  -7.673442  4.826272  131.680052  41.842462  36.301447  -37.992902  -6.461473  -104.177017  53.104859  0.397046  5.48457  -14.725993  -4.928157  -1.344407  -11.048585  -3.666281  -1.127505  
0.0  101.685394  0.0  1.896459  36.705393  -95.651724  1.438628  -19.824046  -0.289623  -18.021749  15.694295  15.644534  -1.565111  3.096525  2.290456  -20.18472  14.941432  4.575589  -11.888061  4.817223  13.458806  -3.510876  1.164224  -2.510847  2.170048  0.291651  2.382882  5.953855  0.582026  6.533659  5.953855  0.582026  6.533658  -19.130341  18.99003  5.507723  114.542311  43.381405  168.502707  -22.195606  9.720052  87.052407  59.958621  -9.77315  -34.791957  21.54073  -7.853824  4.742567  130.75773  41.655276  35.812916  -38.011561  -5.771647  -104.156595  52.878344  0.372658  5.316633  -15.752821  -5.282444  -1.066242  -11.815491  -3.937477  -0.936407  
0.0  101.685394  0.0  2.084016  38.206493  -95.345141  0.620878  -19.589747  -0.557988  -18.121864  15.661416  15.471295  -1.925496  3.084269  2.173712  -20.854597  15.114147  4.703472  -12.67275  4.846618  13.19286  -3.572652  1.118739  -2.530779  2.142069  0.410599  2.363998  5.889164  0.910947  6.492665  5.889164  0.910947  6.492665  -18.968996  18.59104  5.55567  114.23886  44.116789  169.164765  -22.134746  9.692638  86.771824  60.069293  -9.513838  -34.625095  21.916685  -8.261603  4.460785  130.223713  41.420838  35.627109  -38.27246  -4.803547  -104.012577  52.750862  0.254085  5.227272  -16.480651  -5.745325  -0.830434  -12.35794  -4.290317  -0.778435  
0.0  101.685394  0.0  2.122353  39.220253  -95.258118  0.18335  -19.544307  -0.621803  -18.111391  15.612641  15.412648  -2.243072  3.087141  2.048974  -21.236631  15.214752  4.905493  -13.016545  4.755409  13.052176  -3.672709  1.11001  -2.536766  2.207186  0.453817  2.365503  6.071308  1.022282  6.501563  6.071308  1.022282  6.501562  -19.098627  18.474976  5.527542  114.315117  44.716158  170.033127  -21.978994  9.690081  86.587607  60.186044  -9.152487  -34.508237  21.826916  -8.431441  4.354771  130.095548  41.20817  35.60834  -38.554655  -3.790376  -103.901837  52.625975  0.11955  5.279419  -17.255734  -6.005708  -0.646728  -12.936287  -4.490275  -0.655424  
0.0  101.685394  0.0  2.192085  40.153386  -95.130497  -0.333422  -19.403227  -0.695992  -18.353957  15.538809  15.162242  -2.347725  3.136435  2.026765  -21.838178  15.364676  4.951858  -13.50068  4.759435  12.923025  -3.559196  1.107894  -2.51017  2.245608  0.510767  2.38814  6.182284  1.171699  6.569324  6.182284  1.171699  6.569324  -19.215174  18.237686  5.327345  114.673045  45.175167  171.133241  -21.912536  9.800802  86.330648  60.353258  -8.6991  -34.391439  21.936932  -8.700583  4.110035  130.397347  40.649859  35.434461  -39.377919  -2.494619  -102.891945  52.491049  0.432387  4.848852  -17.971764  -6.252801  -0.513772  -13.470664  -4.679295  -0.570148  
0.0  101.685394  0.0  2.179666  40.661669  -95.155349  -0.580913  -19.314819  -0.55948  -18.396943  15.377916  15.076018  -2.434565  3.161296  1.916608  -22.309521  15.489236  4.969606  -13.401635  4.682411  12.985509  -3.577498  1.100315  -2.504298  2.33487  0.536937  2.434898  6.429422  1.2296  6.700958  6.429423  1.2296  6.700958  -19.560894  18.151107  4.948133  115.43375  45.507022  172.345543  -21.832647  9.994963  86.104017  60.471939  -8.156867  -34.178076  21.872611  -8.861417  3.838752  130.718472  40.367293  35.648417  -39.580217  -2.053157  -102.919899  52.658488  0.393798  5.075189  -18.553385  -6.467703  -0.438321  -13.904851  -4.842763  -0.526165  
0.0  101.685394  0.0  2.155883  40.856666  -95.20827  -0.733431  -19.221664  -0.350919  -18.582102  15.220229  14.849489  -2.324177  3.191146  1.84743  -22.746701  15.637883  4.859985  -13.558794  4.68213  13.094907  -3.213588  1.122602  -2.466456  2.410068  0.560913  2.48366  6.638047  1.282409  6.837762  6.638047  1.282409  6.837762  -19.87825  18.129187  4.426983  116.543448  45.608684  173.571655  -21.912702  10.189147  85.865307  60.564024  -7.523079  -34.032844  22.009033  -9.018972  3.602272  131.254298  40.083599  35.990496  -39.768477  -1.914982  -103.095139  52.981594  0.301016  5.581369  -18.981716  -6.58216  -0.351744  -14.224356  -4.931332  -0.46941  
0.0  101.685394  0.0  2.106087  40.614635  -95.316306  -0.534445  -19.199066  -0.018625  -18.498711  14.961497  14.770944  -2.377662  3.249556  1.738555  -23.012331  15.725157  4.62843  -13.203098  4.674463  13.407522  -3.131506  1.159742  -2.446799  2.494101  0.568267  2.528654  6.86901  1.289035  6.962774  6.869009  1.289035  6.962773  -20.21101  18.161159  3.791707  117.980022  45.385563  174.768857  -22.046088  10.300037  85.789406  60.537292  -6.847181  -33.59742  22.247503  -9.162846  3.455143  131.980275  39.760986  36.4438  -39.991783  -1.930213  -103.313003  53.56755  0.157333  6.386041  -19.145989  -6.652192  -0.286975  -14.346416  -4.985948  -0.42484  
0.0  101.685394  0.0  2.0412  39.94055  -95.408094  -0.010954  -19.129498  0.285052  -18.580449  14.627478  14.565976  -2.470153  3.308583  1.653874  -23.095972  15.810954  4.228872  -13.016668  4.701244  13.812559  -2.800534  1.202664  -2.402978  2.581113  0.563637  2.556143  7.106508  1.264241  7.03874  7.106508  1.264241  7.03874  -20.426215  18.158048  3.157327  119.6823  44.845769  175.971113  -22.288827  10.263139  85.805861  60.516857  -6.189518  -33.096232  22.546645  -9.307749  3.439203  132.86775  39.413165  36.949686  -40.3111  -1.840429  -103.485935  54.320595  -0.074881  7.452186  -19.161876  -6.560434  -0.166454  -14.35742  -4.920831  -0.331708  
0.0  101.685394  0.0  1.981001  38.805823  -95.537825  0.868243  -19.024916  0.702175  -18.490157  14.198613  14.514826  -2.484644  3.376402  1.619459  -22.970775  15.821262  3.669319  -12.557311  4.792146  14.435826  -2.50447  1.310815  -2.381748  2.678203  0.544584  2.570609  7.369707  1.200305  7.077598  7.369706  1.200305  7.077598  -20.369567  18.115204  2.766669  121.65045  44.096747  177.321497  -22.530193  10.086976  85.931627  60.490815  -5.598822  -32.4935  22.816385  -9.446633  3.653206  133.847589  39.111862  37.473336  -40.692579  -1.567296  -103.591448  54.808727  -0.392564  8.573712  -18.924593  -6.386116  -0.023311  -14.178927  -4.794301  -0.216305  
0.0  101.685394  0.0  1.956472  37.341414  -95.641557  1.805986  -18.900055  1.18451  -18.563458  13.799452  14.284591  -2.243802  3.451027  1.658163  -22.409699  15.955774  3.169108  -12.744868  4.828441  15.010505  -1.775326  1.421733  -2.333205  2.754292  0.514941  2.559067  7.574022  1.112654  7.043755  7.574022  1.112654  7.043755  -19.963321  18.031532  2.576879  123.959448  43.034789  178.837602  -22.696047  9.822512  86.124823  60.534739  -5.073577  -31.853438  23.101302  -9.510994  4.083218  134.793033  38.903835  37.897476  -41.06425  -1.383703  -103.707972  54.900155  -0.851326  9.455087  -18.510269  -6.022513  0.20821  -13.867812  -4.5281  -0.027124  
